# xmcd
#
# Track frame offsets:
#	150
#	13875
#	25432
#	51107
#	68520
#	82735
#	93860
#	110002
#	124577
#	137815
#	150977
#	166475
#	177709
#
# Disc length: 2560 seconds
#
# Revision: 1
# Processed by: cddbd v1.4PL0 Copyright (c) Steve Scherf et al.
# Submitted via: audiograbber 1.80
#
DISCID=a309fe0d
DTITLE=Royal Wade Kimes - Hangin Around The Moon
DYEAR=1900
DGENRE=
TTITLE0=On The Border
TTITLE1=Ride
TTITLE2=Smile Through A Tear - Part 1
TTITLE3=Lonesome Drifter
TTITLE4=Box Cars and Barb Wire
TTITLE5=100 Years to Late
TTITLE6=Boogie Woogie
TTITLE7=Two More Seconds
TTITLE8=Hangin Around The Moon
TTITLE9=Slow Death
TTITLE10=Saddle On The Wall
TTITLE11=One Heck Of A Gift
TTITLE12=Hey Ralph
EXTD=
EXTT0=
EXTT1=
EXTT2=
EXTT3=
EXTT4=
EXTT5=
EXTT6=
EXTT7=
EXTT8=
EXTT9=
EXTT10=
EXTT11=
EXTT12=
PLAYORDER=
